M48
;Layer_Color=6309944
;FILE_FORMAT=4:4
METRIC,LZ
;TYPE=PLATED
T01F00S00C0.3000
T03F00S00C1.0200
T04F00S00C1.1000
T05F00S00C3.2000
%
T01
X0130556Y003302
X0133735Y00327779
Y00309999
X0136656Y00312539
X0137672
X0140085Y00309999
X01407102Y00329205
X0142879Y00337939
X01469903Y00338673
X0147959Y00360799
X0143768Y00370959
X0140212Y00373499
X0139196Y00370959
X0138688Y00386199
X0140974Y00395089
X0137164Y00360799
X01366125Y00355197
X0134624Y00370959
X0134285Y00388739
X0133015
X0130556Y0037084
X0128524Y0035052
X0132588
X0150499Y00329049
X015215Y00332859
X0153039Y00353179
X015215Y00374769
X0154944Y00337939
X0153928Y00315079
X0147959Y00297299
X0158369Y0038608
X0160401Y0036576
X0162433Y0038608
X01651Y0038481
X0171196Y0038354
X017399Y0038735
X0176022
X0173609Y0032639
X017272Y0032893
X0175768Y0029083
X0164084Y0032893
X0162433Y003175
X0159385Y0030099
X0160401Y004064
X0168656
X016891Y0041529
X0175006
X0174625Y0040386
X0175006Y0050165
X016891
X0163703Y0052197
X0162052Y0051308
X0161671Y0055499
X0163576Y0059436
X0167005Y0058547
X0166751Y0065913
X01686528Y00664242
X0170307Y0065278
X0172085Y0066421
X0172847Y0068707
X0167767Y006858
X0161544Y0062738
X0158496Y0057023
X0155956Y00579302
X0156464Y0055245
Y0053467
X0156972Y0052324
X0156845Y0050165
X0158496Y0048006
X0158242Y0043561
X015661Y00435382
X0152654Y0046228
X0151765Y0047625
X0149225Y0048133
X014986Y0049022
X0149225Y0050038
X0149858Y0050673
X0148844Y0051816
Y0053213
X01494578Y00533188
X0149987Y0054356
Y0055499
X0150876Y0055439
Y0057023
X01503494Y00572588
X0149381
X014986Y0058166
X0150622Y00586014
X0151511Y005842
X0152273Y0056134
X01525287Y0054628
X01527599Y0053963
X0154305Y0054356
X0151257Y0051943
X0146812Y0051562
Y0052705
Y0053467
Y0054229
X0147447Y0054483
X0147066Y0054981
X01462828Y00556472
X0145796Y0054229
X0145669Y0053467
Y0052705
X0145415Y0048387
X0142748
X0140335Y0044831
X0145034Y0043688
X0140716Y0054356
X0138811Y0054483
X0141478Y0056515
X0143637Y005756
X0145669Y0058166
X014859
X01486112Y00605578
X0147193Y0056769
X0143002Y0060198
X01421304Y00602615
X0140716Y0060325
X01387948Y00606413
X0137414Y0059436
X0135382Y0057404
X013335Y0059436
X0135382Y0061468
X0133858Y0066421
X013462Y0068326
X012954Y006858
X0130302Y0066421
X0132207Y0065151
X0147574Y006477
X01480276Y00658724
X0129671Y00477639
Y00447159
X0131068Y00403979
X0132592Y00397629
T03
X0175387Y0053975
Y0056515
Y0059055
Y0061595
Y0064135
X017526Y007112
X017272
Y007366
X017018
X016764
Y007112
X017018
X017526Y007366
X016129
X015875
X015621
X015367
X015113
X014859
X014605
X014351
Y0068707
X014605
X014859
X015113
X015367
X015113Y0063754
X014859
X014605
X014351
X013716Y007112
X013462
Y007366
X013208
X012954
Y007112
X013208
X013716Y007366
X012954Y00635
Y006096
Y005842
Y005588
Y005334
T04
X0170942Y0052197
Y0054737
X0163957Y0068707
X0161417
X0158877
T05
X0130556Y0035052
X0160401Y0038608
X0135382Y0059436
M30
