G04*
G04 #@! TF.GenerationSoftware,Altium Limited,Altium Designer,26.6.0 (10)*
G04*
G04 Layer_Color=7360592*
G04 Board_Origin=0|0*
%FSLAX44Y44*%
%MOMM*%
G71*
G04*
G04 #@! TF.SameCoordinates,3015773E-241F-4A30-A1F4-6897BE815985*
G04*
G04*
G04 #@! TF.FilePolarity,Positive*
G04*
G01*
G75*
%ADD11C,0.1524*%
%ADD13C,0.2000*%
%ADD75C,0.0500*%
%ADD76C,0.1000*%
D11*
X1679977Y596485D02*
Y656175D01*
X1675903D02*
X1679977D01*
X1624859D02*
X1628932D01*
X1624859Y596485D02*
Y656175D01*
Y596485D02*
X1628932D01*
X1675903D02*
X1679977D01*
X1675903Y594985D02*
Y596485D01*
Y656175D02*
Y657675D01*
X1628932D02*
X1675903D01*
X1628932Y656175D02*
Y657675D01*
Y594985D02*
Y596485D01*
Y594985D02*
X1675903D01*
X1681246Y524095D02*
Y583785D01*
X1677173D02*
X1681246D01*
X1626129D02*
X1630202D01*
X1626129Y524095D02*
Y583785D01*
Y524095D02*
X1630202D01*
X1677173D02*
X1681246D01*
X1677173Y522595D02*
Y524095D01*
Y583785D02*
Y585285D01*
X1630202D02*
X1677173D01*
X1630202Y583785D02*
Y585285D01*
Y522595D02*
Y524095D01*
Y522595D02*
X1677173D01*
D13*
X1382610Y575340D02*
X1393610D01*
X1382610Y547340D02*
Y575340D01*
Y547340D02*
X1393610D01*
Y575340D01*
X1532219Y344880D02*
X1546341D01*
X1532219Y315758D02*
Y344880D01*
Y315758D02*
X1546341D01*
Y344880D01*
X1387559Y379138D02*
X1416681D01*
X1387559D02*
Y393260D01*
X1416681D01*
Y379138D02*
Y393260D01*
X1456270Y410010D02*
X1467270D01*
X1456270Y385010D02*
Y410010D01*
Y385010D02*
X1467270D01*
Y410010D01*
X1489300Y311299D02*
Y346799D01*
Y311299D02*
X1528300D01*
Y346799D01*
X1489300D02*
X1528300D01*
X1343109Y491050D02*
X1372231D01*
Y476928D02*
Y491050D01*
X1343109Y476928D02*
X1372231D01*
X1343109D02*
Y491050D01*
X1414221Y544239D02*
Y573361D01*
X1400099Y544239D02*
X1414221D01*
X1400099D02*
Y573361D01*
X1414221D01*
X1597620Y306130D02*
X1622620D01*
Y295130D02*
Y306130D01*
X1597620Y295130D02*
X1622620D01*
X1597620D02*
Y306130D01*
X1326599Y390569D02*
X1355721D01*
X1326599D02*
Y404690D01*
X1355721D01*
Y390569D02*
Y404690D01*
X1514439Y344968D02*
X1528561D01*
Y374090D01*
X1514439D02*
X1528561D01*
X1514439Y344968D02*
Y374090D01*
X1303771Y447839D02*
Y476960D01*
X1289649Y447839D02*
X1303771D01*
X1289649D02*
Y476960D01*
X1303771D01*
X1704899Y414000D02*
X1719021D01*
X1704899Y384879D02*
Y414000D01*
Y384879D02*
X1719021D01*
Y414000D01*
X1608379Y597579D02*
Y626701D01*
X1622501D01*
Y597579D02*
Y626701D01*
X1608379Y597579D02*
X1622501D01*
X1609649Y525189D02*
Y554311D01*
X1623771D01*
Y525189D02*
Y554311D01*
X1609649Y525189D02*
X1623771D01*
X1399720Y378780D02*
X1417220D01*
X1399720Y335198D02*
Y378780D01*
Y335198D02*
X1417220D01*
Y378780D01*
X1567279Y452109D02*
X1587401D01*
Y490231D01*
X1567279D02*
X1587401D01*
X1567279Y452109D02*
Y490231D01*
X1727911Y664889D02*
Y694011D01*
X1713789Y664889D02*
X1727911D01*
X1713789D02*
Y694011D01*
X1727911D01*
X1418240Y576040D02*
Y599540D01*
X1396240Y576040D02*
X1418240D01*
X1396240D02*
Y599540D01*
X1418240D01*
X1727879Y297891D02*
X1757001D01*
Y283769D02*
Y297891D01*
X1727879Y283769D02*
X1757001D01*
X1727879D02*
Y297891D01*
X1472529Y327100D02*
X1486651D01*
X1472529Y297978D02*
Y327100D01*
Y297978D02*
X1486651D01*
Y327100D01*
X1534839Y545389D02*
Y559511D01*
Y545389D02*
X1563961D01*
Y559511D01*
X1534839D02*
X1563961D01*
X1692351Y664889D02*
Y694011D01*
X1678229Y664889D02*
X1692351D01*
X1678229D02*
Y694011D01*
X1692351D01*
X1382610Y576550D02*
Y604550D01*
X1393610D01*
Y576550D02*
Y604550D01*
X1382610Y576550D02*
X1393610D01*
X1697610Y417380D02*
Y499380D01*
X1643110Y417380D02*
X1697610D01*
X1643110D02*
Y499380D01*
X1697610D01*
X1703710Y417380D02*
Y499380D01*
X1758210D01*
Y417380D02*
Y499380D01*
X1703710Y417380D02*
X1758210D01*
X1622860Y312000D02*
Y323000D01*
X1597860D02*
X1622860D01*
X1597860Y312000D02*
Y323000D01*
Y312000D02*
X1622860D01*
X1472529Y330148D02*
X1486651D01*
Y359270D01*
X1472529D02*
X1486651D01*
X1472529Y330148D02*
Y359270D01*
X1442300Y410010D02*
X1453300D01*
X1442300Y385010D02*
Y410010D01*
Y385010D02*
X1453300D01*
Y410010D01*
X1534839Y527609D02*
Y541731D01*
Y527609D02*
X1563961D01*
Y541731D01*
X1534839D02*
X1563961D01*
X1319900Y253909D02*
Y329409D01*
Y253909D02*
X1418300D01*
Y329409D01*
X1319900D02*
X1418300D01*
X1345641Y664889D02*
Y694011D01*
X1331519Y664889D02*
X1345641D01*
X1331519D02*
Y694011D01*
X1345641D01*
X1643110Y282940D02*
X1725110D01*
X1643110D02*
Y337440D01*
X1725110D01*
Y282940D02*
Y337440D01*
X1643939Y414611D02*
X1658061D01*
X1643939Y385489D02*
Y414611D01*
Y385489D02*
X1658061D01*
Y414611D01*
X1528430Y511650D02*
X1566430D01*
X1528430Y451650D02*
Y511650D01*
Y451650D02*
X1566430D01*
Y511650D01*
X1536109Y577291D02*
X1565231D01*
Y563169D02*
Y577291D01*
X1536109Y563169D02*
X1565231D01*
X1536109D02*
Y577291D01*
X1310081Y664889D02*
Y694011D01*
X1295959Y664889D02*
X1310081D01*
X1295959D02*
Y694011D01*
X1310081D01*
X1351061Y374058D02*
Y388180D01*
X1321939D02*
X1351061D01*
X1321939Y374058D02*
Y388180D01*
Y374058D02*
X1351061D01*
X1507589Y511971D02*
X1527711D01*
X1507589Y473849D02*
Y511971D01*
Y473849D02*
X1527711D01*
Y511971D01*
D75*
X1416210Y577840D02*
X1436210D01*
X1416210Y544840D02*
X1436210D01*
Y577840D01*
X1416210Y544840D02*
Y577840D01*
X1631350Y721100D02*
Y752100D01*
X1416650D02*
X1631350D01*
X1416650Y721100D02*
Y752100D01*
Y721100D02*
X1631350D01*
X1430180Y627370D02*
X1450180D01*
X1430180Y594370D02*
X1450180D01*
Y627370D01*
X1430180Y594370D02*
Y627370D01*
X1693970Y505770D02*
Y563570D01*
X1724870D01*
Y505770D02*
Y563570D01*
X1693970Y505770D02*
X1724870D01*
X1693070Y694120D02*
X1713070D01*
X1693070Y654620D02*
X1713070D01*
Y654620D02*
Y694120D01*
X1693070Y654620D02*
Y694120D01*
X1748780Y395750D02*
Y416750D01*
X1715780Y395750D02*
Y416750D01*
Y395750D02*
X1748780D01*
X1715780Y416750D02*
X1748780D01*
X1279900Y514950D02*
X1310900D01*
Y653450D01*
X1279900D02*
X1310900D01*
X1279900Y514950D02*
Y653450D01*
X1572570Y671620D02*
X1655770D01*
X1572570D02*
Y702520D01*
X1655770D01*
Y671620D02*
Y702520D01*
X1312070Y693280D02*
X1332070D01*
X1312070Y653780D02*
X1332070D01*
Y653780D02*
Y693280D01*
X1312070Y653780D02*
Y693280D01*
X1548330Y345549D02*
X1568330D01*
X1548330Y312549D02*
X1568330D01*
Y345549D01*
X1548330Y312549D02*
Y345549D01*
X1336240Y339219D02*
X1356240D01*
X1336240Y372219D02*
X1356240D01*
X1336240Y339219D02*
Y372219D01*
X1356240Y339219D02*
Y372219D01*
X1656090Y395900D02*
Y416900D01*
X1689090Y395900D02*
Y416900D01*
X1656090D02*
X1689090D01*
X1656090Y395900D02*
X1689090D01*
X1599860Y336970D02*
X1620860D01*
X1599860Y325970D02*
X1620860D01*
X1599860D02*
Y336970D01*
X1620860Y325970D02*
Y336970D01*
X1276950Y752050D02*
X1390050D01*
Y695750D02*
Y752050D01*
X1276950Y695750D02*
X1390050D01*
X1276950D02*
Y752050D01*
X1738370Y521300D02*
X1769370D01*
Y659800D01*
X1738370D02*
X1769370D01*
X1738370Y521300D02*
Y659800D01*
X1536710Y295109D02*
Y307109D01*
Y295109D02*
X1564710D01*
Y307109D01*
X1536710D02*
X1564710D01*
X1381960Y339219D02*
X1401960D01*
X1381960Y372219D02*
X1401960D01*
X1381960Y339219D02*
Y372219D01*
X1401960Y339219D02*
Y372219D01*
X1540350Y561230D02*
Y594230D01*
X1520350Y561230D02*
Y594230D01*
X1540350D01*
X1520350Y561230D02*
X1540350D01*
X1416650Y653040D02*
X1529750D01*
Y622040D02*
Y653040D01*
X1416650Y622040D02*
X1529750D01*
X1416650D02*
Y653040D01*
X1657950Y752050D02*
X1771050D01*
Y695750D02*
Y752050D01*
X1657950Y695750D02*
X1771050D01*
X1657950D02*
Y752050D01*
X1725590Y295920D02*
Y328920D01*
X1746590Y295920D02*
Y328920D01*
X1725590Y295920D02*
X1746590D01*
X1725590Y328920D02*
X1746590D01*
X1418790Y339779D02*
Y379279D01*
X1438790Y339779D02*
Y379279D01*
X1418790Y339779D02*
X1438790D01*
X1418790Y379279D02*
X1438790D01*
X1437800Y439410D02*
X1457800D01*
X1437800Y406410D02*
X1457800D01*
Y439410D01*
X1437800Y406410D02*
Y439410D01*
X1302630Y404389D02*
X1407630D01*
X1302630Y478389D02*
X1407630D01*
X1302630Y404389D02*
Y478389D01*
X1407630Y404389D02*
Y478389D01*
X1555150Y671570D02*
Y702570D01*
X1416650D02*
X1555150D01*
X1416650Y671570D02*
Y702570D01*
Y671570D02*
X1555150D01*
X1599860Y281520D02*
Y292520D01*
X1620860Y281520D02*
Y292520D01*
X1599860D02*
X1620860D01*
X1599860Y281520D02*
X1620860D01*
X1352600Y339759D02*
X1385600D01*
X1352600Y376759D02*
X1385600D01*
X1352600Y339759D02*
Y376759D01*
X1385600Y339759D02*
Y376759D01*
X1451770Y439410D02*
X1471770D01*
X1451770Y406410D02*
X1471770D01*
Y439410D01*
X1451770Y406410D02*
Y439410D01*
D76*
X1426210Y556840D02*
Y565840D01*
X1421710Y561340D02*
X1430710D01*
X1440180Y606370D02*
Y615370D01*
X1435680Y610870D02*
X1444680D01*
X1703070Y669370D02*
Y679370D01*
X1698070Y674370D02*
X1708070D01*
X1727530Y406250D02*
X1737030D01*
X1732280Y401500D02*
Y411000D01*
X1322070Y668530D02*
Y678530D01*
X1317070Y673530D02*
X1327070D01*
X1558330Y324549D02*
Y333549D01*
X1553830Y329049D02*
X1562830D01*
X1346240Y351219D02*
Y360219D01*
X1341740Y355719D02*
X1350740D01*
X1667840Y406400D02*
X1677340D01*
X1672590Y401650D02*
Y411150D01*
X1610360Y326970D02*
Y335970D01*
X1605860Y331470D02*
X1614860D01*
X1391960Y351219D02*
Y360219D01*
X1387460Y355719D02*
X1396460D01*
X1525850Y577730D02*
X1534850D01*
X1530350Y573230D02*
Y582230D01*
X1731340Y312420D02*
X1740840D01*
X1736090Y307670D02*
Y317170D01*
X1423790Y359529D02*
X1433790D01*
X1428790Y354529D02*
Y364529D01*
X1447800Y418410D02*
Y427410D01*
X1443300Y422910D02*
X1452300D01*
X1355130Y436389D02*
Y446389D01*
X1350130Y441389D02*
X1360130D01*
X1605860Y287020D02*
X1614860D01*
X1610360Y282520D02*
Y291520D01*
X1369100Y353259D02*
Y363259D01*
X1364100Y358259D02*
X1374100D01*
X1461770Y418410D02*
Y427410D01*
X1457270Y422910D02*
X1466270D01*
M02*
