G04*
G04 #@! TF.GenerationSoftware,Altium Limited,Altium Designer,26.6.0 (10)*
G04*
G04 Layer_Color=240*
G04 Board_Origin=0|0*
%FSLAX44Y44*%
%MOMM*%
G71*
G04*
G04 #@! TF.SameCoordinates,3015773E-241F-4A30-A1F4-6897BE815985*
G04*
G04*
G04 #@! TF.FilePolarity,Positive*
G04*
G01*
G75*
%ADD48C,1.5200*%
%ADD49C,1.5000*%
G04:AMPARAMS|DCode=50|XSize=1.52mm|YSize=1.52mm|CornerRadius=0.38mm|HoleSize=0mm|Usage=FLASHONLY|Rotation=0.000|XOffset=0mm|YOffset=0mm|HoleType=Round|Shape=RoundedRectangle|*
%AMROUNDEDRECTD50*
21,1,1.5200,0.7600,0,0,0.0*
21,1,0.7600,1.5200,0,0,0.0*
1,1,0.7600,0.3800,-0.3800*
1,1,0.7600,-0.3800,-0.3800*
1,1,0.7600,-0.3800,0.3800*
1,1,0.7600,0.3800,0.3800*
%
%ADD50ROUNDEDRECTD50*%
G04:AMPARAMS|DCode=51|XSize=1.6mm|YSize=1.6mm|CornerRadius=0.4mm|HoleSize=0mm|Usage=FLASHONLY|Rotation=180.000|XOffset=0mm|YOffset=0mm|HoleType=Round|Shape=RoundedRectangle|*
%AMROUNDEDRECTD51*
21,1,1.6000,0.8000,0,0,180.0*
21,1,0.8000,1.6000,0,0,180.0*
1,1,0.8000,-0.4000,0.4000*
1,1,0.8000,0.4000,0.4000*
1,1,0.8000,0.4000,-0.4000*
1,1,0.8000,-0.4000,-0.4000*
%
%ADD51ROUNDEDRECTD51*%
%ADD52C,5.0000*%
%ADD53C,1.6000*%
G04:AMPARAMS|DCode=54|XSize=1.6mm|YSize=1.6mm|CornerRadius=0.4mm|HoleSize=0mm|Usage=FLASHONLY|Rotation=90.000|XOffset=0mm|YOffset=0mm|HoleType=Round|Shape=RoundedRectangle|*
%AMROUNDEDRECTD54*
21,1,1.6000,0.8000,0,0,90.0*
21,1,0.8000,1.6000,0,0,90.0*
1,1,0.8000,0.4000,0.4000*
1,1,0.8000,0.4000,-0.4000*
1,1,0.8000,-0.4000,-0.4000*
1,1,0.8000,-0.4000,0.4000*
%
%ADD54ROUNDEDRECTD54*%
G04:AMPARAMS|DCode=55|XSize=1.52mm|YSize=1.52mm|CornerRadius=0.38mm|HoleSize=0mm|Usage=FLASHONLY|Rotation=90.000|XOffset=0mm|YOffset=0mm|HoleType=Round|Shape=RoundedRectangle|*
%AMROUNDEDRECTD55*
21,1,1.5200,0.7600,0,0,90.0*
21,1,0.7600,1.5200,0,0,90.0*
1,1,0.7600,0.3800,0.3800*
1,1,0.7600,0.3800,-0.3800*
1,1,0.7600,-0.3800,-0.3800*
1,1,0.7600,-0.3800,0.3800*
%
%ADD55ROUNDEDRECTD55*%
G04:AMPARAMS|DCode=56|XSize=1.5mm|YSize=1.5mm|CornerRadius=0.375mm|HoleSize=0mm|Usage=FLASHONLY|Rotation=0.000|XOffset=0mm|YOffset=0mm|HoleType=Round|Shape=RoundedRectangle|*
%AMROUNDEDRECTD56*
21,1,1.5000,0.7500,0,0,0.0*
21,1,0.7500,1.5000,0,0,0.0*
1,1,0.7500,0.3750,-0.3750*
1,1,0.7500,-0.3750,-0.3750*
1,1,0.7500,-0.3750,0.3750*
1,1,0.7500,0.3750,0.3750*
%
%ADD56ROUNDEDRECTD56*%
G04:AMPARAMS|DCode=57|XSize=1.8mm|YSize=1mm|CornerRadius=0.5mm|HoleSize=0mm|Usage=FLASHONLY|Rotation=90.000|XOffset=0mm|YOffset=0mm|HoleType=Round|Shape=RoundedRectangle|*
%AMROUNDEDRECTD57*
21,1,1.8000,0.0000,0,0,90.0*
21,1,0.8000,1.0000,0,0,90.0*
1,1,1.0000,0.0000,0.4000*
1,1,1.0000,0.0000,-0.4000*
1,1,1.0000,0.0000,-0.4000*
1,1,1.0000,0.0000,0.4000*
%
%ADD57ROUNDEDRECTD57*%
G04:AMPARAMS|DCode=58|XSize=2.2mm|YSize=1mm|CornerRadius=0.5mm|HoleSize=0mm|Usage=FLASHONLY|Rotation=90.000|XOffset=0mm|YOffset=0mm|HoleType=Round|Shape=RoundedRectangle|*
%AMROUNDEDRECTD58*
21,1,2.2000,0.0000,0,0,90.0*
21,1,1.2000,1.0000,0,0,90.0*
1,1,1.0000,0.0000,0.6000*
1,1,1.0000,0.0000,-0.6000*
1,1,1.0000,0.0000,-0.6000*
1,1,1.0000,0.0000,0.6000*
%
%ADD58ROUNDEDRECTD58*%
D48*
X1485900Y687070D02*
D03*
X1753870Y590550D02*
D03*
X1295400Y584200D02*
D03*
X1536700Y736600D02*
D03*
X1435100D02*
D03*
X1562100D02*
D03*
X1587500D02*
D03*
X1511300D02*
D03*
X1485900D02*
D03*
X1460500D02*
D03*
X1753870Y615950D02*
D03*
X1460500Y687070D02*
D03*
X1295400Y558800D02*
D03*
Y609600D02*
D03*
Y635000D02*
D03*
X1753870Y565150D02*
D03*
Y641350D02*
D03*
X1460500Y637540D02*
D03*
X1485900D02*
D03*
X1511300D02*
D03*
Y687070D02*
D03*
X1435100D02*
D03*
D49*
X1752600Y711200D02*
D03*
X1371600D02*
D03*
X1346200Y736600D02*
D03*
Y711200D02*
D03*
X1295400Y736600D02*
D03*
X1320800D02*
D03*
X1371600D02*
D03*
X1320800Y711200D02*
D03*
X1727200Y736600D02*
D03*
Y711200D02*
D03*
X1676400Y736600D02*
D03*
X1701800D02*
D03*
X1752600D02*
D03*
X1701800Y711200D02*
D03*
D50*
X1435100Y637540D02*
D03*
X1612900Y736600D02*
D03*
X1536700Y687070D02*
D03*
D51*
X1639570D02*
D03*
D52*
X1305560Y350520D02*
D03*
X1604010Y386080D02*
D03*
X1353820Y594360D02*
D03*
D53*
X1709420Y547370D02*
D03*
X1614170Y687070D02*
D03*
X1588770D02*
D03*
D54*
X1709420Y521970D02*
D03*
D55*
X1295400Y533400D02*
D03*
X1753870Y539750D02*
D03*
D56*
X1295400Y711200D02*
D03*
X1676400D02*
D03*
D57*
X1412300Y316909D02*
D03*
X1325900D02*
D03*
D58*
X1412300Y276909D02*
D03*
X1325920Y276979D02*
D03*
M02*
